# xmcd
#
# Track frame offsets:
# 150
# 14502
# 30607
# 47137
# 66795
# 86935
# 109585
# 127922
# 147955
# 169042
# 185582
# 205660
#
# Disc length: 3014 seconds
#
#
# Revision: 0
# Processed by: cddbd v1.5.1PL2 Copyright (c) Steve Scherf et al.
# Submitted via: CDLP Version 5
#
DISCID=a40bc40c
DTITLE=小林明子 - FALL IN LOVE FOREVER〜AKIKO MEETS RICHARD CARPENTER〜
DYEAR=1900
DGENRE=Misc
TTITLE0=The Reply
TTITLE1=Only The Angels Know
TTITLE2=Let's Fall In Love Forever
TTITLE3=優しくだまして
TTITLE4=心みだれて-say It with flowers-
TTITLE5=恋におちて-Fall in iove-
TTITLE6=愛とやすらぎの中で-How Could I  Ask For More-
TTITLE7=China River
TTITLE8=心のままに-Morning Wish-
TTITLE9=Stardust Memories
TTITLE10=夏の終りに
TTITLE11=Misunderstandings
EXTD=
EXTT0=
EXTT1=
EXTT2=
EXTT3=
EXTT4=
EXTT5=
EXTT6=
EXTT7=
EXTT8=
EXTT9=
EXTT10=
EXTT11=
PLAYORDER=
